# xmcd CD database file
#
# Track frame offsets:
#	150
#	17272
#	33808
#	49081
#	64945
#	81077
#	95944
#	111675
#	125878
#	142253
#	157176
#	175208
#	201833
#
# Disc length: 3059 seconds
#
# Revision: 3
# Processed by: cddbd v1.5.2PL0 Copyright (c) Steve Scherf et al.
# Submitted via: CDex 1.70beta3
#
DISCID=c30bf10d
DTITLE=paramore - RIOT!
DYEAR=2007
DGENRE=Rock
TTITLE0=For A Pessimist, I'm Pretty Optimistic
TTITLE1=That's What You Get
TTITLE2=Hallelujah
TTITLE3=Misery Business
TTITLE4=When It Rains
TTITLE5=Let The Flames Begin
TTITLE6=Miracle
TTITLE7=crushcrushcrush
TTITLE8=We Are Broken
TTITLE9=Fences
TTITLE10=Born For This
TTITLE11=Stop This Song (Love Sick Melody) [Bonus Track]
TTITLE12=Data Track
EXTD=YEAR: 2007
EXTT0=
EXTT1=
EXTT2=
EXTT3=
EXTT4=
EXTT5=
EXTT6=
EXTT7=
EXTT8=
EXTT9=
EXTT10=
EXTT11=
EXTT12=
PLAYORDER=
